<svg xmlns="http://www.w3.org/2000/svg" viewBox="0 0 513.69 569.65">
<defs>
<!--<style>.cls-1{fill:#152e4d;}.cls-2{fill:#b2b2b2;}</style>-->
</defs>
<g id="Layer_2" data-name="Layer 2">
<g id="Layer_1-2" data-name="Layer 1" fill="currentColor">
<path class="cls-1" d="M71.92,491.46h-14V453.7q0-6.12.53-13.51h-.35a69,69,0,0,1-2,8.36L41.29,491.46H29.67L14.61,449a83.55,83.55,0,0,1-2-8.8h-.39q.57,9.33.57,16.37v34.9H0V428.35H20.82l12.9,37.41a53.32,53.32,0,0,1,2.24,9h.27a90.45,90.45,0,0,1,2.5-9.11l12.9-37.32H71.92Z"/>
<path class="cls-1" d="M151.25,464.13q0,28.44-26.5,28.44-25.71,0-25.7-27.78V428.35h14.26V465q0,15.31,12,15.32,11.75,0,11.75-14.8V428.35h14.22Z"/>
<path class="cls-1" d="M216.09,491.46H178.5V428.35h14.22v51.58h23.37Z"/>
<path class="cls-1" d="M276.49,439.92h-18v51.54H244.23V439.92H226.31V428.35h50.18Z"/>
<path class="cls-1" d="M312.73,491.46H298.51V428.35h14.22Z"/>
<path class="cls-1" d="M384.92,439.92h-18v51.54H352.66V439.92H334.74V428.35h50.18Z"/>
<path class="cls-1" d="M444.79,491.46H406.94V428.35h36.4v11.57H421.16v14H441.8v11.53H421.16v14.44h23.63Z"/>
<path class="cls-1" d="M513.69,489.22q-6.92,3.34-18.05,3.35-14.52,0-22.84-8.54t-8.32-22.76q0-15.13,9.35-24.56t24.28-9.42a45.55,45.55,0,0,1,15.58,2.33v13.69a27.66,27.66,0,0,0-14.44-3.78q-8.89,0-14.35,5.59t-5.46,15.14q0,9.15,5.15,14.59t13.87,5.44a29.51,29.51,0,0,0,15.23-4.06Z"/>
<path class="cls-2" d="M6.76,529.17a2.76,2.76,0,0,1-2-.81,2.68,2.68,0,0,1-.83-2,2.62,2.62,0,0,1,.83-2,2.82,2.82,0,0,1,2-.79,3.22,3.22,0,0,1,1.12.2,2.78,2.78,0,0,1,1.53,1.46,2.63,2.63,0,0,1,.23,1.13,3,3,0,0,1-.21,1.12,2.73,2.73,0,0,1-.62.91,2.92,2.92,0,0,1-.92.6A2.75,2.75,0,0,1,6.76,529.17ZM4.81,568.9V537.19h4V568.9Z"/>
<path class="cls-2" d="M65.77,568.9V550.63q0-10.74-7.81-10.75a9,9,0,0,0-3.84.83,9.19,9.19,0,0,0-3,2.27,10.47,10.47,0,0,0-2,3.46,12.4,12.4,0,0,0-.73,4.32V568.9h-4V537.19h4v5.51h.12a11.47,11.47,0,0,1,10.63-6.25q5.2,0,7.93,3.37t2.72,9.76V568.9Z"/>
<path class="cls-2" d="M126,568.9V550.63q0-10.74-7.8-10.75a9.12,9.12,0,0,0-6.89,3.1,10.66,10.66,0,0,0-2,3.46,12.63,12.63,0,0,0-.72,4.32V568.9h-4V537.19h4v5.51h.12a11.44,11.44,0,0,1,10.62-6.25q5.2,0,7.93,3.37t2.73,9.76V568.9Z"/>
<path class="cls-2" d="M177.89,569.65a16.12,16.12,0,0,1-6.33-1.18,13.41,13.41,0,0,1-4.79-3.33,14.6,14.6,0,0,1-3-5.15,20.14,20.14,0,0,1-1.05-6.66,21.16,21.16,0,0,1,1.11-7.1,15,15,0,0,1,3.17-5.31,13.77,13.77,0,0,1,5-3.33,17.76,17.76,0,0,1,6.51-1.14,16,16,0,0,1,6.19,1.13,12.54,12.54,0,0,1,4.68,3.27,14.43,14.43,0,0,1,2.94,5.2,22,22,0,0,1,1,7,20.4,20.4,0,0,1-1.06,6.76,15.17,15.17,0,0,1-3.06,5.25,13.5,13.5,0,0,1-4.83,3.41A16.43,16.43,0,0,1,177.89,569.65Zm.31-29.77a11.91,11.91,0,0,0-4.71.9,9.84,9.84,0,0,0-3.6,2.62,11.65,11.65,0,0,0-2.31,4.21,18.26,18.26,0,0,0-.81,5.65,16.58,16.58,0,0,0,.81,5.36,12,12,0,0,0,2.27,4.09,9.83,9.83,0,0,0,3.58,2.62,12.84,12.84,0,0,0,9.42,0,9.4,9.4,0,0,0,3.47-2.57,11.54,11.54,0,0,0,2.15-4.14,19.73,19.73,0,0,0,.73-5.57c0-4.28-1-7.54-2.85-9.8S181.73,539.88,178.2,539.88Z"/>
<path class="cls-2" d="M238,568.9h-3.78L222,537.19h4.37l8.76,24.16a17.73,17.73,0,0,1,1,3.87h.13a18.81,18.81,0,0,1,1-3.75l9.07-24.28h4.24Z"/>
<path class="cls-2" d="M298.69,568.9v-5.63h-.13a11.71,11.71,0,0,1-4.22,4.71,11.27,11.27,0,0,1-6.06,1.67,12.39,12.39,0,0,1-4.13-.65,8.93,8.93,0,0,1-3.13-1.85,8,8,0,0,1-2-2.86,9.41,9.41,0,0,1-.7-3.69,9.09,9.09,0,0,1,2.66-6.86c1.78-1.7,4.46-2.81,8.06-3.33l9.63-1.39q0-9.13-7.09-9.14a15.55,15.55,0,0,0-10.29,4.06v-4.33a12.74,12.74,0,0,1,2.25-1.29,20.75,20.75,0,0,1,2.65-1,22.41,22.41,0,0,1,2.86-.65,19,19,0,0,1,2.87-.23c3.53,0,6.19,1,8,3s2.71,4.94,2.71,8.86V568.9Zm-8.18-15.39a25.2,25.2,0,0,0-3.65.78,7.37,7.37,0,0,0-2.51,1.25,4.74,4.74,0,0,0-1.46,2,7.78,7.78,0,0,0-.46,2.87,6.07,6.07,0,0,0,.45,2.35,5.21,5.21,0,0,0,1.3,1.87,5.93,5.93,0,0,0,2.07,1.23,8.26,8.26,0,0,0,2.77.43,9.11,9.11,0,0,0,6.93-3,10.57,10.57,0,0,0,2-3.41,12.54,12.54,0,0,0,.73-4.31v-3.12Z"/>
<path class="cls-2" d="M351.19,568.53a9.88,9.88,0,0,1-4.46,1q-7.68,0-7.68-8.86v-20h-5.58v-3.47h5.58v-8l4-1.3v9.29h8.18v3.47H343v19.42a7.94,7.94,0,0,0,1.05,4.64,4.16,4.16,0,0,0,3.57,1.43,6.36,6.36,0,0,0,3.56-1.12Z"/>
<path class="cls-2" d="M385,529.17a2.76,2.76,0,0,1-2-.81,2.71,2.71,0,0,1-.83-2,2.65,2.65,0,0,1,.83-2,2.82,2.82,0,0,1,2-.79,3.18,3.18,0,0,1,1.12.2,2.78,2.78,0,0,1,1.53,1.46,2.63,2.63,0,0,1,.23,1.13,3,3,0,0,1-.21,1.12,2.73,2.73,0,0,1-.62.91,2.82,2.82,0,0,1-.92.6A2.75,2.75,0,0,1,385,529.17Zm-2,39.73V537.19h4V568.9Z"/>
<path class="cls-2" d="M435.62,569.65a16.12,16.12,0,0,1-6.33-1.18,13.38,13.38,0,0,1-4.78-3.33,14.47,14.47,0,0,1-3-5.15,20.14,20.14,0,0,1-1.05-6.66,21.16,21.16,0,0,1,1.11-7.1,15,15,0,0,1,3.18-5.31,13.69,13.69,0,0,1,5-3.33,17.7,17.7,0,0,1,6.5-1.14,16.12,16.12,0,0,1,6.2,1.13,12.58,12.58,0,0,1,4.67,3.27,14.43,14.43,0,0,1,2.94,5.2,21.7,21.7,0,0,1,1,7,20.4,20.4,0,0,1-1.07,6.76A15.15,15.15,0,0,1,446.9,565a13.5,13.5,0,0,1-4.83,3.41A16.48,16.48,0,0,1,435.62,569.65Zm.31-29.77a11.83,11.83,0,0,0-4.7.9,9.8,9.8,0,0,0-3.61,2.62,12,12,0,0,0-2.31,4.21,18.27,18.27,0,0,0-.8,5.65,16.59,16.59,0,0,0,.8,5.36,12.22,12.22,0,0,0,2.28,4.09,9.8,9.8,0,0,0,3.57,2.62,12.84,12.84,0,0,0,9.42,0,9.4,9.4,0,0,0,3.47-2.57,11.23,11.23,0,0,0,2.15-4.14,19.73,19.73,0,0,0,.73-5.57q0-6.42-2.85-9.8C442.18,541,439.46,539.88,435.93,539.88Z"/>
<path class="cls-2" d="M505.78,568.9V550.63q0-10.74-7.81-10.75a9,9,0,0,0-3.84.83,9.19,9.19,0,0,0-3.05,2.27,10.64,10.64,0,0,0-2,3.46,12.4,12.4,0,0,0-.73,4.32V568.9h-4V537.19h4v5.51h.13a11.44,11.44,0,0,1,10.62-6.25q5.21,0,7.93,3.37t2.72,9.76V568.9Z"/>
<path class="cls-1" d="M232.44,132V330a1.78,1.78,0,0,1-3.25,1c-37.54-55-100-153.95-100-203.27a127.72,127.72,0,0,1,.93-15.33,5.4,5.4,0,0,1,5.33-4.75h72.65a24.62,24.62,0,0,1,5,.51,47.79,47.79,0,0,0,19.26,22.09C232.41,130.77,232.44,131.38,232.44,132Z"/>
<path class="cls-1" d="M354.09,58.83H293.16a47.45,47.45,0,0,0-72.63,0H159.6a5.35,5.35,0,0,1-4.27-8.59,127.68,127.68,0,0,1,203,0A5.36,5.36,0,0,1,354.09,58.83Z"/>
<path class="cls-1" d="M384.52,127.67C384.52,177,322,276,284.47,331a1.78,1.78,0,0,1-3.24-1V132c0-.6,0-1.21.07-1.79a48,48,0,0,0,19.28-22.07,23.3,23.3,0,0,1,5-.53h72.65a5.39,5.39,0,0,1,5.33,4.75A127.72,127.72,0,0,1,384.52,127.67Z"/>
<path class="cls-1" d="M256.83,59.21a30.24,30.24,0,1,0,30.24,30.24A30.25,30.25,0,0,0,256.83,59.21Zm0,59.66a29.42,29.42,0,1,1,29.41-29.42A29.45,29.45,0,0,1,256.83,118.87Z"/>
<circle class="cls-1" cx="256.83" cy="89.45" r="30.24"/>
</g>
</g>
</svg>